{"title":"L.Attesa.[The.Wait].2015.DVDRip.x264.HORiZON-ArtSubs","uid":14803246,"size":1892627028,"categoryP":"video","categoryS":"movies","magnet":"?xt=urn:btih:7b65c02666dfd1f0ee36733f5367ca8c606453fb&amp;dn=L.Attesa.%5BThe.Wait%5D.2015.DVDRip.x264.HORiZON-ArtSubs&amp;tr=udp%3A%2F%2Ftracker.leechers-paradise.org%3A6969&amp;tr=udp%3A%2F%2Fzer0day.ch%3A1337&amp;tr=udp%3A%2F%2Fopen.demonii.com%3A1337&amp;tr=udp%3A%2F%2Ftracker.coppersurfer.tk%3A6969&amp;tr=udp%3A%2F%2Fexodus.desync.com%3A6969","seeders":11,"leechers":6,"uploader":"lletaif","files":1,"time":1465147194,"description":"General\r\nUnique ID : 143162638186544359385709657318996406264 (0x6BB41F05A89D3BFA3491B3827ACD6FF8)\r\nComplete name : L.Attesa.[The.Wait].2015.DVDRip.x264.HORiZON-ArtSubs.mkv\r\nFormat : Matroska\r\nFormat version : Version 2\r\nFile size : 1.76 GiB\r\nDuration : 1h 35mn\r\nOverall bit rate : 2 633 Kbps\r\nWriting application : HandBrake 0.9.5\r\nWriting library : libmkv 0.6.4.1\r\n\r\nVideo\r\nID : 1\r\nFormat : AVC\r\nFormat/Info : Advanced Video Codec\r\nFormat profile :   \r\nFormat settings, CABAC : Yes\r\nFormat settings, ReFrames : 4 frames\r\nCodec ID : V_MPEG4/ISO/AVC\r\nDuration : 1h 35mn\r\nBit rate : 2 174 Kbps\r\nWidth : 720 pixels\r\nHeight : 432 pixels\r\nDisplay aspect ratio : 2.35:1\r\nOriginal display aspect ratio : 2.35:1\r\nFrame rate mode : Constant\r\nFrame rate : 25.000 fps\r\nColor space : YUV\r\nChroma subsampling : 4:2:0\r\nBit depth : 8 bits\r\nScan type : Progressive\r\nBits/(Pixel*Frame) : 0.280\r\nStream size : 1.43 GiB (81%)\r\nWriting library : x264 core 112\r\nEncoding settings : cabac=1 / ref=3 / deblock=1:0:0 / analyse=0x3:0x113 / me=hex / subme=7 / psy=1 / psy_rd=1.00:0.00 / mixed_ref=1 / me_range=16 / chroma_me=1 / trellis=1 / 8x8dct=1 / cqm=0 / deadzone=21,11 / fast_pskip=1 / chroma_qp_offset=-2 / threads=6 / sliced_threads=0 / nr=0 / decimate=1 / interlaced=0 / constrained_intra=0 / bframes=3 / b_pyramid=2 / b_adapt=2 / b_bias=0 / direct=1 / weightb=1 / open_gop=0 / weightp=2 / keyint=250 / keyint_min=25 / scenecut=40 / intra_refresh=0 / rc_lookahead=50 / rc=abr / mbtree=1 / bitrate=2174 / ratetol=1.0 / qcomp=0.60 / qpmin=3 / qpmax=51 / qpstep=4 / ip_ratio=1.40 / aq=1:1.00\r\nLanguage : English\r\nDefault : Yes\r\nForced : No\r\nColor range : Limited\r\nColor primaries : BT.601 NTSC\r\nTransfer characteristics : BT.709\r\nMatrix coefficients : BT.601\r\n\r\nAudio\r\nID : 2\r\nFormat : AC-3\r\nFormat/Info : Audio Coding 3\r\nMode extension : CM (complete main)\r\nFormat settings, Endianness : Big\r\nCodec ID : A_AC3\r\nDuration : 1h 35mn\r\nBit rate mode : Constant\r\nBit rate : 448 Kbps\r\nChannel(s) : 6 channels\r\nChannel positions : Front: L C R, Side: L R, LFE\r\nSampling rate : 48.0 KHz\r\nFrame rate : 31.250 fps (1536 spf)\r\nCompression mode : Lossy\r\nStream size : 307 MiB (17%)\r\nLanguage : Italian\r\nDefault : Yes\r\nForced : No\r\n\r\nText #1\r\nID : 3\r\nFormat : VobSub\r\nCodec ID : S_VOBSUB\r\nCodec ID/Info : Picture based subtitle format used on DVDs\r\nLanguage : Italian\r\nDefault : No\r\nForced : No\r\n\r\nText #2\r\nID : 4\r\nFormat : VobSub\r\nCodec ID : S_VOBSUB\r\nCodec ID/Info : Picture based subtitle format used on DVDs\r\nLanguage : English\r\nDefault : No\r\nForced : No\r\n\r\nMenu\r\n00:00:00.000 : Chapter 1\r\n00:06:51.840 : Chapter 2\r\n00:11:00.000 : Chapter 3\r\n00:18:53.280 : Chapter 4\r\n00:24:12.960 : Chapter 5\r\n00:29:53.280 : Chapter 6\r\n00:33:53.280 : Chapter 7\r\n00:41:12.960 : Chapter 8\r\n00:47:15.840 : Chapter 9\r\n00:54:24.960 : Chapter 10\r\n01:01:27.840 : Chapter 11\r\n01:07:15.840 : Chapter 12\r\n01:14:59.040 : Chapter 13\r\n01:20:11.040 : Chapter 14\r\n01:23:18.240 : Chapter 15\r\n01:29:29.280 : Chapter 16","torrent":{"xt":"urn:btih:7b65c02666dfd1f0ee36733f5367ca8c606453fb","amp;dn":"L.Attesa.%5BThe.Wait%5D.2015.DVDRip.x264.HORiZON-ArtSubs","amp;tr":["udp%3A%2F%2Ftracker.leechers-paradise.org%3A6969","udp%3A%2F%2Fzer0day.ch%3A1337","udp%3A%2F%2Fopen.demonii.com%3A1337","udp%3A%2F%2Ftracker.coppersurfer.tk%3A6969","udp%3A%2F%2Fexodus.desync.com%3A6969"],"infoHash":"7b65c02666dfd1f0ee36733f5367ca8c606453fb","infoHashBuffer":{"type":"Buffer","data":[123,101,192,38,102,223,209,240,238,54,115,63,83,103,202,140,96,100,83,251]},"announce":[],"urlList":[]}}